<svg fill="none" xmlns="http://www.w3.org/2000/svg" viewBox="0 0 132 24">
  <path d="M22.48 13.333C22.48 19.733 18.035 24 11.5 24 4.444 23.733 0 19.2 0 12S4.444 0 11.501 0c5.49 0 9.671 2.933 10.455 7.467h-3.659c-.784-2.667-3.66-4.534-6.796-4.534-4.705 0-7.842 3.467-7.842 8.8 0 5.334 3.137 8.8 8.103 8.8 4.183 0 7.32-2.666 7.58-6.666h-9.67V11.2h12.546c.261.8.261 1.333.261 2.133ZM31.105 13.867l6.012-.534v-.8c0-2.133-1.568-3.2-3.92-3.2-2.353 0-3.922 1.334-3.66 3.2h-3.398c0-3.733 2.614-5.866 7.057-5.866 4.182 0 6.796 2.133 6.796 6.133v10.933h-2.875l-.261-3.2C36.07 22.667 33.719 24 30.844 24c-3.137 0-5.228-1.867-5.228-4.8.261-3.2 2.091-4.8 5.49-5.333Zm1.046 7.2c2.875 0 4.966-1.867 4.966-4.8V15.2l-5.228.8c-1.83.267-2.614 1.333-2.614 2.667-.26 1.6 1.046 2.4 2.876 2.4ZM68.745 12.533v10.934h-3.398V12.8c0-2.4-1.307-3.467-3.137-3.467-2.352 0-3.66 1.867-3.66 4.534V23.2h-3.136v-9.867c0-2.666-1.046-3.733-3.137-3.733-2.352 0-3.66 1.6-3.66 4.267v9.6h-3.136V6.933h2.875l.262 2.134c1.045-1.6 2.614-2.4 4.705-2.4 2.352 0 4.182 1.066 4.705 3.2.784-1.867 2.875-3.2 5.227-3.2 3.398 0 5.49 2.133 5.49 5.866ZM88.871 18.667c-.784 3.2-3.92 5.333-7.841 5.333-5.228 0-8.626-3.467-8.626-8.533 0-5.067 3.398-8.534 8.364-8.534 4.705 0 7.842 2.934 7.842 7.467 0 .533 0 .8-.262 1.333H75.802V16c0 3.2 2.091 5.067 5.228 5.067 2.352 0 3.92-1.067 4.443-2.4h3.398Zm-13.07-5.334h9.41c0-2.133-1.829-4-4.443-4s-4.443 1.6-4.966 4ZM112.657 3.733C110.566 1.333 107.43 0 104.293 0c-6.535 0-11.762 5.333-11.762 12s5.227 12 11.762 12c3.659 0 6.796-1.6 8.887-4.267L104.293 12l8.364-8.267ZM117.362 6.933h2.876l.261 2.667c1.046-1.867 3.137-2.933 5.489-2.933 3.921 0 6.012 2.4 6.012 6.4v10.4h-3.398V13.6c0-2.667-1.568-4-3.659-4-2.614 0-4.444 1.867-4.444 5.067v8.8h-3.137V6.933Z" fill="#000"/>
</svg>
